<svg id="Layer_1" data-name="Layer 1" xmlns="http://www.w3.org/2000/svg" viewBox="0 0 96.71 103.87"><defs><style>.cls-1{fill:#1e1821;}</style></defs><title>Movie_Reel_Vector</title><path class="cls-1" d="M282.06,447.2l5.08-9.27c-6.57-5.68-13.35-10-18.1-15.9-22.39-27.91-8.41-66.94,24.84-76.91,25-7.5,54.36,9.19,60.07,37.45,5,24.71-11.21,51-37,56.52C305.41,441.58,293.94,444.43,282.06,447.2Zm15.05-14.09c6.81-.21,11.43-4.4,11.81-11.9.33-6.58-5.69-12.34-12.26-12.15-7,.2-11.85,5.4-11.73,12.59C285,428.29,290.23,433.18,297.11,433.11Zm-11.74-75.25c-6.63-.19-12.19,4.21-12.16,11.54,0,7.77,4.26,11.51,11.57,12.36,6.72.77,12.33-5,12.35-12S292.41,357.91,285.37,357.86Zm42,44.91c-7.25,0-12.25,4.52-12.32,11.23-.06,7.09,5,12.15,12,12.15s11.82-4.54,11.93-11.65S334.56,402.83,327.34,402.77Zm-50.57,7.46c7,0,12.23-4.88,12.17-11.38-.05-7-4.9-11.92-11.72-12-7.49-.08-12.32,4.56-12.3,11.82S269.4,410.21,276.77,410.23Zm50.39-47.34c0-7-4.73-11.92-11.69-12-7.22-.07-11.63,4.42-11.64,11.84,0,7.11,4.73,12.11,11.55,12.19S327.11,369.88,327.16,362.89Zm20.9,22.35a11.85,11.85,0,0,0-11.73-12.17c-6.45-.23-11.67,5.13-11.7,12,0,7.36,4.46,12,11.56,12S348,392.33,348.06,385.24Z" transform="translate(-258.14 -343.33)"/></svg>